<svg xmlns="http://www.w3.org/2000/svg" viewBox="0 0 128 128" role="img" aria-labelledby="t">
  <title id="t">Folha eSocial Local</title>
  <defs>
    <linearGradient id="fundo" x1="0" y1="0" x2="1" y2="1">
      <stop offset="0" stop-color="#2a54c9"/>
      <stop offset="1" stop-color="#132a66"/>
    </linearGradient>
    <linearGradient id="selo" x1="0" y1="0" x2="1" y2="1">
      <stop offset="0" stop-color="#17b26a"/>
      <stop offset="1" stop-color="#067647"/>
    </linearGradient>
  </defs>
  <rect width="128" height="128" rx="28" fill="url(#fundo)"/>
  <!-- folha com canto dobrado -->
  <path d="M34 22h40l20 20v58a6 6 0 0 1-6 6H34a6 6 0 0 1-6-6V28a6 6 0 0 1 6-6z" fill="#ffffff"/>
  <path d="M74 22v14a6 6 0 0 0 6 6h14z" fill="#c7d4f7"/>
  <!-- linhas do demonstrativo -->
  <rect x="38" y="50" width="30" height="6" rx="3" fill="#1d3b8b"/>
  <rect x="72" y="50" width="12" height="6" rx="3" fill="#8aa2e6"/>
  <rect x="38" y="62" width="24" height="6" rx="3" fill="#1d3b8b" opacity="0.55"/>
  <rect x="72" y="62" width="12" height="6" rx="3" fill="#8aa2e6"/>
  <rect x="38" y="74" width="18" height="6" rx="3" fill="#1d3b8b" opacity="0.35"/>
  <!-- marca de XML -->
  <path d="M42 90l-5 5 5 5M56 90l5 5-5 5M51 88l-4 14" fill="none" stroke="#1d3b8b" stroke-width="3" stroke-linecap="round" stroke-linejoin="round" opacity="0.8"/>
  <!-- selo de conferência -->
  <circle cx="92" cy="92" r="20" fill="url(#selo)" stroke="#ffffff" stroke-width="5"/>
  <path d="M83 92.5l6 6 12-12" fill="none" stroke="#ffffff" stroke-width="5" stroke-linecap="round" stroke-linejoin="round"/>
</svg>
